<svg xmlns="http://www.w3.org/2000/svg" viewBox="0 0 64 64" role="img" aria-label="Miino sparkle icon">
  <defs>
    <linearGradient id="g" x1="0" y1="0" x2="1" y2="1">
      <stop offset="0%" stop-color="#71d0ff"/>
      <stop offset="100%" stop-color="#9b8cff"/>
    </linearGradient>
  </defs>
  <rect width="64" height="64" rx="18" fill="#08111e"/>
  <path d="M32 8l4.2 15.8L52 28l-15.8 4.2L32 48l-4.2-15.8L12 28l15.8-4.2L32 8z" fill="url(#g)"/>
  <path d="M49 42l1.8 6.2L57 50l-6.2 1.8L49 58l-1.8-6.2L41 50l6.2-1.8L49 42z" fill="#ecf4ff" opacity="0.95"/>
  <path d="M16 43l1.2 4.2L21 48.4l-3.8 1.2L16 54l-1.2-4.4L11 48.4l3.8-1.2L16 43z" fill="#ecf4ff" opacity="0.8"/>
</svg>
